/* XPM */
static char *_eedd268e5824ed7ac1aa8c4684fc2abHmFM4HvMtaNFoWCu[] = {
/* columns rows colors chars-per-pixel */
"10 10 2 1 ",
"  c None",
". c #2C25B4",
/* pixels */
"          ",
" ........ ",
" ........ ",
" ........ ",
" ........ ",
" ........ ",
" ........ ",
" ........ ",
" ........ ",
"          "
};
