/* XPM */
static char *dcfcb502faf54410ba1b2f1330230860h598WuM0KQSSpRHz[] = {
/* columns rows colors chars-per-pixel */
"10 10 2 1 ",
"  c None",
". c gold",
/* pixels */
"          ",
" ........ ",
" ........ ",
" ........ ",
" ........ ",
" ........ ",
" ........ ",
" ........ ",
" ........ ",
"          "
};
