/* XPM */
static char *fa1c8352f11d42e8fcc0e8d6300fe163Ln7Fr6MD8ATCsfm1[] = {
/* columns rows colors chars-per-pixel */
"64 64 185 2 ",
"   c #140E00",
".  c #161302",
"X  c #1B1604",
"o  c #1E1906",
"O  c #1C160A",
"+  c #1E1B09",
"@  c #221C06",
"#  c #231D0C",
"$  c #271F12",
"%  c #25210E",
"&  c #28220D",
"*  c #262311",
"=  c #2A2513",
"-  c #2D2916",
";  c #2D2619",
":  c #2E2A18",
">  c #312B16",
",  c #332D1B",
"<  c #363315",
"1  c #383117",
"2  c #34311D",
"3  c #39331D",
"4  c #352E22",
"5  c #363221",
"6  c #3B3524",
"7  c #3D3A25",
"8  c #3F372C",
"9  c #3E3A29",
"0  c #423C26",
"q  c #433D2C",
"w  c #463E32",
"e  c #454124",
"r  c #484226",
"t  c #44412D",
"y  c #4A432D",
"u  c #4D492D",
"i  c #514C2F",
"p  c #464231",
"a  c #4B4433",
"s  c #4D4A35",
"d  c #4C4639",
"f  c #4E4A39",
"g  c #524B35",
"h  c #534D3B",
"j  c #575337",
"k  c #5A5337",
"l  c #56523E",
"z  c #59533D",
"x  c #5C593D",
"c  c #605B3E",
"v  c #554D41",
"b  c #565241",
"n  c #5B5543",
"m  c #5D5A45",
"M  c #5C5448",
"N  c #5E5B49",
"B  c #625C46",
"V  c #635D4B",
"C  c #665E51",
"Z  c #636244",
"A  c #696446",
"S  c #65614D",
"D  c #69634D",
"F  c #6D6C4E",
"G  c #666251",
"H  c #6B6553",
"J  c #6D6954",
"K  c #6D6659",
"L  c #6E6A59",
"P  c #716B55",
"I  c #736D5B",
"U  c #737154",
"Y  c #797256",
"T  c #75725D",
"R  c #79735D",
"E  c #7C7A5C",
"W  c #756E61",
"Q  c #767261",
"!  c #7B7563",
"~  c #7D7A64",
"^  c #7B7669",
"/  c #7E7A69",
"(  c #827C5D",
")  c #807766",
"_  c #827B65",
"`  c #837C6B",
"'  c #887F6E",
"]  c #867E71",
"[  c #848264",
"{  c #85826D",
"}  c #89836D",
"|  c #8D896D",
" . c #90896C",
".. c #94906D",
"X. c #868271",
"o. c #8E8777",
"O. c #8D8674",
"+. c #8B8574",
"@. c #8E8976",
"#. c #8E8E77",
"$. c #8D8974",
"%. c #8D8679",
"&. c #8D8A79",
"*. c #8E8D78",
"=. c #8F8A79",
"-. c #918B76",
";. c #928B75",
":. c #908979",
">. c #918D7A",
",. c #948D7B",
"<. c #928F7E",
"1. c #968F7C",
"2. c #938C7B",
"3. c #988F7E",
"4. c #959075",
"5. c #999476",
"6. c #93907F",
"7. c #95927D",
"8. c #98917F",
"9. c #9A947D",
"0. c #9D997E",
"q. c #A19C7D",
"w. c #958E81",
"e. c #998F83",
"r. c #969382",
"t. c #979281",
"y. c #989380",
"u. c #9A9785",
"i. c #9E9786",
"p. c #9B9484",
"a. c #9D9985",
"s. c #9D9689",
"d. c #9F9A89",
"f. c #A19A86",
"g. c #A19B85",
"h. c #A39D8B",
"j. c #A29F8E",
"k. c #A19D8D",
"l. c #A39D8C",
"z. c #A89F8E",
"x. c #A69E92",
"c. c #A89E92",
"v. c #A3A086",
"b. c #AAA486",
"n. c #AEAA87",
"m. c #A0A088",
"M. c #A7A78F",
"N. c #A5A18C",
"B. c #A8A18F",
"V. c #AAA38D",
"C. c #ADA98C",
"Z. c #B0AA8E",
"A. c #B6B28F",
"S. c #A7A493",
"D. c #A6A394",
"F. c #A6A191",
"G. c #ACA792",
"H. c #A8A596",
"J. c #A9A697",
"K. c #AAA493",
"L. c #A9A991",
"P. c #ADA995",
"I. c #ADA59A",
"U. c #AFAA99",
"Y. c #B2AB94",
"T. c #B0AD9C",
"R. c #B3AC9B",
"E. c #B6B094",
"W. c #B8B394",
"Q. c #B6B19D",
"!. c #BBB49C",
"~. c #BDB99B",
"^. c #B6B2A0",
"/. c #BAB4A2",
"(. c #BDB9A6",
"). c #BEBBA8",
"_. c #C2BC9D",
"`. c #C3BCA4",
"'. c #C4BCAF",
"]. c #C6C29D",
"[. c #C7C2A2",
"{. c #CAC6A4",
"}. c #CBC5AB",
"|. c #CBCAAB",
" X c #C6C3B0",
/* pixels */
"! ^ ^ q f ' ! ! ) ! ^ T , q a 2 : - + . o + X +   N W Q / ^ W / ! H = S S S S V V H m V S m V S S m m S Z m 2 U ! T D f S [ T ~ ",
"l.l.i.G I F.h.B.i.8.f.-.3 H G.G.y.,./ L G h q 9 6 G x.J.H.H.D.6.u.{ t ! ! / ~ ! / { T ! { ` ~ ! / T ! ! T H y { L.$.T m _ M.m.L.",
"o.:.X.b N o.o.,.1.+.1.@., J f.+.h.l.l.S.T.S.d.l.Q b <.&.` X.u.@.,.R 0 D J I P J J P J D J J S J S S K H S m t / *.T m f L $.X.+.",
"! ^ Q h h I I R X.) I P 0 I -.+.{ X.X.&.r.<.&.t.! 3 Q Q ! H T T T V 3 z z m m m j m B z z n n H V S S m N z t L T K S m G T T T ",
"q h h 7 0 f p a p n y 0 q g g S L Q T T ! Q ! { n = j 7 l s t u s t > 0 0 0 0 0 0 0 g t u g 3 7 9 7 2 : a t 2 p f f y t t f l p ",
"V ! ) ! ^ ) ! ! I ) V s +.) B V , d b h b n N H N m D 7 D | $.| | $.} >.$.} | $.,.{ } _ >.} t & > : = 2 L ! Q / ~ ~ L L T ! H 2 ",
"o.l.F.K.U.F.F.K.K.i.I q K.(.R.,.f Q +.! L G N m z H U Z [ ~.|.~.}.[.}.}.}.`.`.`.}.!._.Z.!.b.u @ # * # 2 +.d.S.S.l.S.y.u.l.N.X., ",
"I X.o.o.:.X.X.o.+.' R 6 y.G.Y.I q / F.l.d.d.r.@.d.} A x j E n.b.~.W.!.W.!.E.Y.Z.~.Y.!.b.b.0.r @ = - + = ~ $.*.{ +.,.~ ! ` *./ = ",
"V I Q I ! H G ) I I G 0 ! ) } T p L ^ L I I K T ! } E Z A F F E g.,.0.0.5.,.} 5.;.g.5.g.,.,.j o = : % , I I T I H ! ~ J I J J 6 ",
"9 d q 6 p d q q q , q 3 z q g y , p q 6 p s p s 7 y e < < e u g j g z u u z z x B g 0 j z j , # o # # # q q 6 s h q q q a 0 a # ",
"q I / I ) ' ^ ! ,.! ) S B q n m G G N N G S N S S D J A Z J E Y t D ,.-.,.0.) V -.B p I ^ R H ` ` X.+.` ] W p V X.I ! ' X.! Q 7 ",
"f X.F.l.F.F.l.Y.B.l.8.S B n P ! I W ! ` X./ / +.{ / $.$._ $.7.$.g ~ R.Q.R.Q.p.` R.! V y.F.f.1.R.l.l.l.F.F.l.n ! F.l.U.F.H.H.s.q ",
"h I / ) o.X.` o.' p.+.V H V B P J G I / / Q ! / I L ! ~ T ! { ~ f I l.N.i.7.` ~ 1.H h ` &.@.! o.:.+.o.X.X.o.h I +.+.o./ ' o.X.6 ",
"d H W ! ) ! H I H I S n S h y z B h n H H K L H L K L L G G H G h V X.X.! I V L ^ V h H I ^ L I G T ^ I Q I p V ! ! ! I ) I L q ",
"= p d 9 p d y a g y a a 7 y a 6 7 9 b m a p f d p d p 9 9 9 9 p w q a 9 5 q p b p q 5 p q f p a q h p 5 p 0 , 0 6 h d 0 h q q , ",
"t.t.H a G :.:.{ o.` 8.+.n T ) 3 Q +.l.+.p + + . . $ + O = = ; 9 : 6 h h b N s q ` +.+.6.{ &.+.<.1.X.d . : # = # V <.' n ! X.i.:.",
"7.U.+.5 o.h.7.d.h.S.d.X.! R.y.6 ! d.F.d.N L K ! / 1.' X.w.w.p.] T K.Q.L.N.P.E m ~ 9.N.v.m.m.d.d.x.i.h - = # , X H y.! ^ F.l.i.l.",
"*.$.I 2 T X.&.d.y.7.+.! { ,.T 6 G X./ ^ n <.K./.U./.l.l.c.s.e.) @.7.$.>.$.[ j u x E [ [ { $.+.$.+.X.a # # - 6 # M ` H I o.o.X.o.",
"I G K t J H T / { ! T K X.L b 7 N ^ Q Q G d.F.l.l.l.1.y.i.1.e.%.1.$.! +.{ / A J x H L H J J H L I ! p # # = = # h G B V I I I I ",
", 5 9 . q 2 3 p p q t t 9 6 2 # 5 9 5 6 6 L ) ) ) I G G V B V V n N a b a p 7 9 7 a t 6 6 6 5 6 5 0 = # $ -   = , 6 6 6 6 6 0 6 ",
"T ~ n o L ! T @.{ { { ` t ! @.I ~ Q L Q G I I I n d n n h h h h v d 4 b n n n n ! ` ! Q Q Q Q ^ I ! I ^ ^ I 7 V ! I ) ^ I ! ^ Q ",
"h.h.G = d.(.U.^.).(.R.S.s h. XK.P.N.H.^.u.^ G V h h I ) ! ' +.X.w.H p 2.F.l.U.R.N.K.l.l.K.D.x.K.x.l.l.F.i.X.6 G K.l.K.F.k.F.l.l.",
"{ { V , ,.P.u.7.F.d.<.+.q / d.$.$.{ &.r.:.+.w.u.C H 1.1.) -.3.:.p.K p +.,.{ >.+.,.,.$.+.<.&.%.+.' %.o.o.X.o., G 1.X.:.+.o.1.X.o.",
"Q T I t Q ` X.{ ` ! T I f S J G T T { { ^ I W K n n ) I h H ! ^ I H s ~ T J ~ F P P J J ! T L I H ! ! H H ' - M ^ I ! H W ^ H Q ",
"9 f t 2 s n s n q a l q q s p y m m N n h f f f w 4 n 9 y z y t t t 2 t g e i r e e i 0 g j 3 h q p n p h q , , q a h w w h p q ",
"K @.7.+.u.d.,.u.<.` S * X # % , m P { @.o.o.2.<.%.` o.n R f.0.5.9.0.;.5.5.| 5...5.5.q.5.4._ j ! i.o.I 6 G ' 1.t.y.' q N :.:.^ 6 ",
"! N.Q.R./.^.U.^.Q.d.Q * = , 7 s m [ v.N.d.i.s.s.k.s.:.n ` !.!.Y.!._.W._.~.A._.].[.{.[.{._.g.c } i.l.o.0 ' K./.^.R.x.7 H U.t.o., ",
"J &.,.,.u.u.d.d.N.7.I * 6 a l m s U $.>.+.&.2.%.%.2.) h ` C.b.g.q.g.q.q.q.q.n.A.W.W.b.Z.E.q.g P :.y.) , ' l.l.d.i.i.7 G y.! ! 6 ",
"V T H K Q ~ +.~ ~ T m % 6 n S G x F E P H I I L H I G a I _ Y Y _ _ _ Y Y Y ( [ ( [ _ _ ;.5.B E X.] H 7 X.:.) / ' ) 0 n ) I H 7 ",
": p 6 q t t N f f l s * % s h y x j s y q p w 8 w w q , a 0 r i 0 q g u u j g j i r i 1 0 q > 0 6 0 0 - d p 0 B h h 6 q d a p # ",
"9 H H J n b X.+.7.d.r.T 7 H K m [ E E ~ { +.+.%.%.+.o.` ;._  .| g n ) ) ' 1.;.0.0.A D t h d p d 0 q 6 , : : = n L / ) ' H V I q ",
"7 Q ` ~ l f y.U.R.Q.K.{ 2 ! 7.7.v.5.4.f.F.l.d.k.k.l.K.h.B.g.Z.f.h G y.h.B.Q.R.`.R.B H V i.z.Q.R./.H.l.R.R.l.V N ) :.o.y.^ I / , ",
"a n V I p n ^ ` 7.-.} P > E } | { ,.,.1.:.' :.o.] +.o.} +.:.+.) h S { 1.o.@.1.,.p.P h H X.8.f.K.d.+.d.u.d.u.G b H L I Q G G G , ",
"8 n V V p l R R S P P x 1 A A F S H H ^ H H I V ! I G G K I I ! p h S H S I R J I n h H ' -.1.p.<.` X.+.<.+.N p n N m n f h b , ",
"6 h a , q h V g z x x e < r r 0 y h h G 7 d n p d q q a p q q a q p d p p h g , q q a n V H P I G V b G Q I S a 5 f a p p p a 6 ",
"w.p.! a +.i.l.I B S 0.C.Y.C.0.D ) l.F.F.n ^ 1.' p n Q o.1.:.%.:.,.8.p.1.1.y.) h +.:.o.` ! ! I J I L a b V b N q G *.*.*.u.t.<.6.",
"x.x.Q q :.l.F.! z g g.}.}.`.~.B ) R./.F.n ) 1.I d I y.l.l.x.l.l.f.h.l.l.h.l.` d } ,.y.y.l.Q./.R.H.u.V Q &.{ +.m G r.r.r.H.d.u.l.",
"%.%.I 0 Q ) 1.) P B 7.Y.N.b.!.B ! l.l.:.B ` X.b I %.i.o.) ' X.) +.X.X.} X.-.R d ) X.+.+.,.d.y.o.:.! p G $.+.` s N +./ / +./ ` $.",
"C K M q G V ! I y B ~ | } } ,.n H ) ^ I V I I h B H H V B H I H H V V S S H V a V G G H I ^ ! J ! H a n J H G p h L S V H V G H ",
"w a 9 6 h a h d 3 V h 7 0 q g 0 p h h d w q h h p q q q p a q 0 q 0 0 q q q q , t q 6 3 6 7 7 6 : 2 : , , 3 s l 2 a q t a t p q ",
"i.y.l.1.i.K.l./.i.) K.V h N.:.d.i.R.K.o.t.n F.y.y.1.<.1.y.i.i.y.y.n h ! P ! I ! ! I q . , # @ & = + = % : = l m J <.7.6.r.r.y.@.",
"l.s.l.i.K.^.l.K.R.7.G.H n d.8.l.R.K.l.i.u.h y.i.i.i.i.l.d.w.y.l.y.B h R I ) ! ^ ) ^ g X , > , , 6 = = + : 6 n l n +.6.,.7.u.N.r.",
"' ' ' ' 1.l.o.X.o.^ ) N n o.y.l.y.%.' y.X.h ) ) ' +.X.' X.X.X.%.} S n I I I I R ) ! h # > , , , , % 7 a z z V m n T ` X.{ / $.{ ",
"H ! ! I ^ ) I H ! Q H n n V L H ) I n G h q I G n G B h V I C n n z d n l a h m B n t # = : % , % o t m n s f V m N S T K z V S ",
"& a h d q 7 , = = 5 $ = ; ; 7 , , , , h a 0 d 7 h n h h n p 9 h h n 7 7 g p h n n h g y a 0 = d h s z y 2 y f S f l n G V n l 5 ",
"p ` i.d.y.o.X.! G I v d a 6 6 , # = 6 ) l.l.l.F.l.i.y.F.i.B n l.l.i.V n 1.y.N.d.F.l.p.p.l.o.n @.Q./.P.T S m.N.u./ u.h.d.r.N.7.s ",
"q ' d.K.R.R.R.d.R.'.R.K.R.U.I.F.F.t.I I 1.o.&.i.d.i.y.F.s.n h l.7.y.z a ,.8.l.:.l.N.-.X.l.@.q ! K.R.P.T m N.u.$.$.u.g.u.,.d.,.q ",
"6 J ^ +.i.l.F.%.:.F.s.y.F.F.s.y.d.l.R z } +.' ` ~ X./ ) X.B h ` ' i.V h 1.o.1.' 8.f.) I l.d.a ) p.u.h.T h ` ~ $.@.` / $.` ` ) s ",
"q N H Q ^ ` +.` T { d.d.N.d.{ { _ 0.F y j B V n V B N p V v a B l R l s I P V H ^ B H ! H G 6 V I J S a 0 H n V N M B n M C n q ",
"t a p 2 a h f p N m H L G L m A c Z u g B z j n d 3 B G n 7 w b n V q y P H V H V n B n h G b G H B B h p n 5 h M n n v v M M a ",
"u.+.Q 9 H Q G S m n n h 7 S S B B c A 5.!.Y.!.`.! B F./.%.W p.l.I J V +.Q.R.Y.K.R.R.F.H.i.R.R.I.G.8.l.l.y.:.h o.R.K.K.K.x.K.I.x.",
"H.t.X.5 L / H I / X.X.L f y.L.0.0.5.5.C.Y.C.G.9.H B u.%.H W k.w.I n z o.K.l.h.y.8.X.^ y.:.y.i.y.y.X.y.8.1.' 9 ) w.:.w.i.w.%.2.2.",
"/ Q Q - n S l G S H T m t ` 7.$.0.5.;.9.0.9.N.9.S V ` H C W %.' ^ n g T } ` 8.y.,.' I +.X.o.' ) ) ! { ^ ~ ! 7 R X.) ] o.] ' %.X.",
"m N G 5 f h a n l t z h a z S S D A x B B g n V h d B h B n n B H z d V G V I R V G h b n I n n l m n h h n 3 n n h f h h b n v ",
"* : : + = * % = 2 = p 9 m m m z 3 m B V S n B G B h V 0 , $ = = & = # = - # = @ # , , , q n 6 n n S n B n V z B G B V V V H B p ",
"* * + = - * = % % 5 S f 7.P.P.{ y a.Y.h.G.R.Y.h.K.h.l.h     $   o > = , p n G S ^ ) +.:.i.o.h 7.G.Q.l.R.K.G.U.K.l.l.F.F.c.K.:.C ",
"* : = # = = * - # 6 m S T $.{ ! 0 -.8.` -.-.o.:.' y./ d q n I R ) 5.,.l.R./.R.-.B.f.i.l.<.' n R y.;.} $.,.,.-.,.o.:.8.o.1.1.1.h ",
"= = * * : = * - = 6 z m G ! T H q ! ! I ! ! ) } } } ^ b I K.K.G.B.g.h.,.-.y.8.p.I } o.X.' X.n B ` R R ) ) ! ~ +.` ) ` ! ! Q ' n ",
"# # # * + + + % = : t t s z s f 6 g h h h h n h d p h , n l.:.:.+.) :.` ! ) I +.S T H B n G p h a u g z g y a n m h n l h p n 0 ",
"b G K G f n V H N n S S H J S H V S S I K H V 6 V I ^ V G ! H T I H P H G S h d n B f h p p 7 B P P A z h m H I H S J H I V H q ",
"/ l.H.u.G X.u.l.P.l.L.K.K.L.m.U.H.K.K.R.I.R.i.n o.F.l.l.' n z n z n , 0 n B S 6 - h n ! ) X.+.F.V.g._ z n _ g.b.B.B.G.N.R.U.F.G ",
"H &.t.+.f I +.*.*.X.$.$.+.@.{ $.:.2.%.o.%.w.' q I <.' t.` a h h z V > g ! X.p.n n y.u.i.:.y.:.:.,.;.I g z ` 9.,.-.-.-.` @.,.:.d ",
"G L I ! p G I T Q T ~ T T ~ T Q Q ^ W ! ! Q W f G ^ I / ) H I H R E z I :.-.-.n 0 ! K K H ^ / ! P P A m S R ~ I ! ! ! I T T ) h ",
"b s p G 5 h h h h f m f f n f h d v h n n d d q f n n d h n h h l u 6 a m n h 0 7 V h n n h h h z u 0 0 t s h j g s n z h y n 0 "
};
