/* XPM */
static char *f04a70371cb54353c1486a6407977a73Wv0wbQoZKS6X0TBl[] = {
/* columns rows colors chars-per-pixel */
"64 64 152 2 ",
"   c #020100",
".  c #0A0600",
"X  c #0D0A00",
"o  c #120D02",
"O  c #141204",
"+  c #191505",
"@  c #1C1A07",
"#  c #161409",
"$  c #1A160A",
"%  c #17180A",
"&  c #1D1A0D",
"*  c #1C1711",
"=  c #1E1B11",
"-  c #221C0D",
";  c #221E12",
":  c #23210E",
">  c #252214",
",  c #292415",
"<  c #272915",
"1  c #2B2916",
"2  c #272418",
"3  c #2A251A",
"4  c #272818",
"5  c #2D2A1C",
"6  c #312C1E",
"7  c #2F301E",
"8  c #34331D",
"9  c #39331E",
"0  c #2E2C21",
"q  c #332E22",
"w  c #382F26",
"e  c #332E28",
"r  c #353224",
"t  c #3A3525",
"y  c #3C3A25",
"u  c #363428",
"i  c #3B3629",
"p  c #3F3D2E",
"a  c #3E3C2F",
"s  c #3E3E2D",
"d  c #3D3A2C",
"f  c #3F3C31",
"g  c #403C24",
"h  c #413E2B",
"j  c #413E2D",
"k  c #403F2D",
"l  c #423F2C",
"z  c #413C2E",
"x  c #423F30",
"c  c #423E32",
"v  c #433F33",
"b  c #423E32",
"n  c #3F402E",
"m  c #41402B",
"M  c #41402C",
"N  c #43402D",
"B  c #42412D",
"V  c #45402C",
"C  c #45402D",
"Z  c #46412E",
"A  c #45442F",
"S  c #44412D",
"D  c #49442E",
"F  c #4D4B2F",
"G  c #424031",
"H  c #434132",
"J  c #444331",
"K  c #464032",
"L  c #474133",
"P  c #454233",
"I  c #474433",
"U  c #444034",
"Y  c #454135",
"T  c #454334",
"R  c #444235",
"E  c #454336",
"W  c #454634",
"Q  c #464437",
"!  c #454134",
"~  c #484330",
"^  c #4A4532",
"/  c #4A4436",
"(  c #4B4537",
")  c #4A4436",
"_  c #4D4A35",
"`  c #47443B",
"'  c #474538",
"]  c #48463A",
"[  c #4A463A",
"{  c #4C4638",
"}  c #4B463A",
"|  c #4B493A",
" . c #4C4A3B",
".. c #4E4B3A",
"X. c #4E483C",
"o. c #4C4A3D",
"O. c #4F4C3D",
"+. c #4E4C3F",
"@. c #4D4A3C",
"#. c #504B37",
"$. c #534E3B",
"%. c #524C3D",
"&. c #565137",
"*. c #54533F",
"=. c #55513D",
"-. c #5D593D",
";. c #4F4C40",
":. c #514D41",
">. c #524C40",
",. c #554D40",
"<. c #544E40",
"1. c #534D41",
"2. c #535142",
"3. c #575141",
"4. c #565042",
"5. c #555146",
"6. c #545246",
"7. c #565247",
"8. c #555242",
"9. c #5A5446",
"0. c #595445",
"q. c #5A5945",
"w. c #5B5A45",
"e. c #5D5845",
"r. c #5C5945",
"t. c #5A5748",
"y. c #59574A",
"u. c #5B5549",
"i. c #5B5A48",
"p. c #5A584B",
"a. c #5C5948",
"s. c #5B594C",
"d. c #5E594B",
"f. c #615A46",
"g. c #625C4C",
"h. c #605E51",
"j. c #645E51",
"k. c #685E52",
"l. c #676346",
"z. c #66604C",
"x. c #69644D",
"c. c #6C694D",
"v. c #666252",
"b. c #6A6454",
"n. c #6E6954",
"m. c #6B6559",
"M. c #6C6959",
"N. c #716C55",
"B. c #746D5A",
"V. c #757254",
"C. c #75725D",
"Z. c #7A745E",
/* pixels */
"r u r o # a r r i r t q   X O .                   ; 0 e d u e d r 4   , > , , > > 4 > > , > > , , & & > > &   5 r r 4 O > i 7 u ",
",.4.>.2 q t.4.9.O.@.,.K . 5 e.a.| Q u 5 2 # X X . 3 6.s.p.p.t.[ ..a o r r y t r u s r r s d r r u r r r 7 < O n q.Q 7 & i q.*.p.",
"U U a & ; U v / / v { K   5 $.G 4.7.2.p.h.t.>.7.r $ [ U d a O.U I r X 3 3 6 5 3 5 5 3 , 1 < , 3 , , 3 3 , = X y U r ; % 5 G s n ",
"r u q # # q 6 q z u 6 6 X 6 K z a a s U @.` G ..r   r r r 3 r r q > X & & ; - - @ - > & & - & 3 > > > ; > & X 5 6 5 > ; 3 r r 7 ",
"o $ $ . X # o # # & o X X + + , 5 r q q r r r s &   # X $ # o O # o   o X X X o X o O o O @ . X X X .   # X   O % % O X X % $ O ",
"2 r u r u u r r 6 i > # v i ; >   # $ # $ = > 3 > > < X < B A m Z Z z ^ Z B h Z ^ y z y ~ B o           5 r r i r t 5 5 r r 4   ",
"v ,.t.d.g.d.9.d.a.%.6 o g.M.z./ # r v u 5 2 > = & 5 5 : s x.C.c.C.B.Z.C.B.B.N.N.Z.x.n.f.x.e.O         . v 2.p.q.4.9.O.O.4.9.s   ",
"5 z v U U a v v v d q . ..a.g.6 X i t.7.>.2.| K *.m < @ @ y w.-.x.z.b.z.x.g.f.f.b.f.b.e.e.$.o           r G U s G Q u r i / u   ",
"> q q q q 3 3 u 6 q 3 X r t h r O 0 u 0 0 q 3 5 r h 8 : < 1 1 9 =.^ $.$._ ^ z _ D $._ $.( ^ @           q 6 q 5 3 r u 5 q 5 5 . ",
"X # X . # # X X X   o . & o + O   o X X O # o O X O X . . X O + & $ & O O $ & - ; + o & - &             o X . # # X X o # X O   ",
"o 5 u q t a u r / r i , ; o - ; 2 3 > > 2 2 > > , < < < > 1 9 8 o , / K / ..t > K > O 6 t r 5 d u a v d s q o > v q r a v r r . ",
"# v 9.4.9.t.9.g.9.3.{ , ; & 6 r 5 q r a a u u G a i B G i B _ K + u z.v.z.v.%.d g.t > ..9.%.[ g.7.>.7.9.9.,.* r t.9.g.t.d.d.>.o ",
"# q u u v v d x d @.z > 5 > ; 5 5 2 0 u u r r t 0 5 r r 5 r s t # q 3.9.%.[ i u [ 3 # u / U u G U f v f z v # q v v v u a v a . ",
"# 3 q r u q 5 q 5 q 3 - , # o & ; $ $ 2 3 3 5 4 5 3 5 5 > 2 3 2 $ > a a r 5 > 5 r > % 3 7 u 5 0 3 q u q q 5 o > q r q q u q 5 o ",
"  o # X o # o # # o # # X o O . X X $ = O O % # o O o X X X X o X X # X . X o $ o X . o X # X O X # # . # X   X . # # X # o o   ",
"[ [ 3 # 3 U U a U i @.v & r t . e v 7.G O                     X   . % # $ > # X d G f [ s U f U [ a O           > / a ; r b %.U ",
"[ d.v . G 4.[ 4.*.9.2.z r g.| . r 6.9.6.; 5 3 r u [ d f [ [ @.a e q.z.e.e.d.r : t _ 8.*.4.8.%.%.9.%.$           3 [ r u t.4.>.9.",
"Q G 6 . q s K %.@.{ G r a ` 5 . 3 f d u = [ d.m.a.b.9.7.t.%.{ i U @.B I Z y @ O : 9 y y h B z G v f #       .   ; i 5 5 U v v v ",
"5 3 3 o 3 3 q i a r q 3 s 5 & X > u r q 2 >.t.,.9.9.{ X.@.{ X.v [ G r v v y , 5 @ 3 5 3 5 5 3 5 0 r o           $ 3 ; > 5 5 q 5 ",
"  . X   X . . O O X X X X X .   . X . X . 5 u i u q 3 2 , ; , ; = ; # & # O X X X O o X . . . . . X               . . X . . X . ",
"r r =   5 r q U s s a d o r U q u q 5 q 3 q q q * # $ ; # # $ $ $ o   & & * = & r u r q r r e u q q 5 r u 5 . > r q u u q r u q ",
"2.4.,   %.M.a.v.M.M.h.9.# 4.C.p.p.7.a.v.@.u 3 > # # q i w z x v / 3 o U 7.7.g.g.9.p.7.,.p.t.9.9.7.4.,.t.%.a   2 a.,.g.t.4.d.9.9.",
"s a >   ` a.O.| 9.2./ v X i %.G s d K o./ v [ O.2 2 / / u U { / @.5 o v [ d ~ z I { G v / U v v a v v v v v   3 { v / v v { a U ",
"r q 5 o r d s a d r q 6 % > 5 3 5 r a s u q q 3 * * u 5 $ 5 r t q 3 # u 6 5 t , 5 6 5 5 r q 5 0 3 r r 3 3 a   ; r 5 q 3 q u 3 q ",
"X % X   # = # & X O $ X X # O O - > > = # # % # o   & . o & O o o o . o + o + O o o + o + & . + o o * o # o     o # # o o # o X ",
"3 U [ G @.,.` O.[ i >           & 5 s K v U ` { U i v ; r %.#.( #.$.Z _ _ V F D F _ =._ ^ y & t %.v q . 2 a [ [ @.a o ; [ / r . ",
"r 0.v.g.b.v.d.v.v.2.r       X # : y 4.e.>.>.>.;.,.>./ & h b.x.g.x.n.l.c.x.l.N.V.V.V.V.V.N.=.: z %.4.v X a d.m.k.k.t.. 5 g.[ v   ",
"5 K ` ` @.@.>.%.4.[ q   X # $ ; O 5 I Q v v ` U v / i # h f.e.=.%.=.%.=.&.&.-.l.l.l.-.f.l.&.O 5 / @.u   a ,.9.>.%.>.. > X.q w . ",
"> r 3 3 r u v r t r ;   . = , , @ < 9 5 3 q 0 0 3 q 3 # 6 t 9 9 y y t 9 8 9 t g y g y y ^ _ > r z a 5 . a / u u a u X * u 5 3 . ",
"  O . X X O > % # $ #     # # O @ @ # O o o o X o o o   O o o + o o + O O @ + @ + o O . X o   X . X X   # o X ; $ # . o # # o   ",
"X 3 3 5 = $ z v [ %.| q X 3 5 > s 9 8 t a v v v v v K d Z t V l + ; t i h ( D $.#.< , o $ # o # X X .         * 5 u u a 5 > 5 X ",
". q d i & # O.d.g.v.t.d   r _ O.*._ ^ %.9.7.>.,.,.,.a.3.e.$.f.#.$ 3 ..,.e.b.g.n.g.; 3 , %.9.j.j.m.d.>.j.g.9.> ; u U v @.u 6 u   ",
"o * ; q o = r d / K s 5   r h z d / / / U i U v a v v z v U v i # > z / U K { / %.5 & 3 z { %.a.>.G >.@.>.>.2 & 3 5 0 r 3 3 3   ",
". * ; > o & q r , 5 6 - . < < 1 2 5 3 u 5 3 q > r 5 3 3 5 5 q r # $ , 3 > 6 q 5 6 ; # 5 d K / @.[ a v G [ G ; X * > = * % # $   ",
". # o   o # , + & - - o . O O o o # # 2 . # & o # o X # # X X # o o # # o # #   o o # & , 5 5 5 2 > $ 2 q 0 > O . % O o o o O . ",
"{ @.w O v %.,.6 > , $.e.f.e.$., i 3.9.t.; r { a o * q U [ U U / / { @./ ( ..i # v ~ U d r r q 5 q 5 O & > & > X > Q Q U ;.[ [ [ ",
"9.t.w o / %.9.r & O =.Z.Z.N.n.> i j.m.t.$ u [ q # q [ ,.4.9.9.,.%.4.9.,.4.3.i # z / ..@.9.v.b.j.p.@.> r G a f = , @.o.@.p.>.@.7.",
"b U 5 X r u [ u 6 > ( g.=.e.x.> r 4.,./ ; i b & q U %.v u a v u v z z z z K q # t z v v / %...G U u O > G f d O > v d u v d d v ",
"2 5 ; o 2 > r 6 o - t z s z ^ - 3 u r q > 5 q $ ; 5 5 > ; 3 5 5 3 , , > , 3 > # , 3 3 3 6 r r 5 r 3 O = 5 3 2 O # 5 > > 3 > 3 3 ",
"o o . . $ # & # . > + X X o + X # # # # o X $ $ o o X o # o o X o X X o X o X   o X .   . . . .   .       . # $ . # X o O o O X ",
"%.{ ,.{ >.a.4.b.%.u e.> $ 3./ %.%.g.a.U [ * 9.[ [ { / { @.>.%.@.@.; # r 5 r q r r q o                       $ ; 5 / [ / ....@.G ",
"4.>.9.>.d.v.9.a.g.[ a.3 ; %.{ 3.g.d.4.>.@.$ @.%.>.%.%.>.>.[ @.4.@.; # r 6 i r t i t #           .         . = $ = v [ ` ..%.9.| ",
"a a a a [ ,.v v v r u ; ; v %.9.{ v a @.a # u i a v a z v v z v z , & q 6 6 6 q i r #               X # & & : ; & r d f d u G s ",
"5 r r q u u q 5 r r 3 ; & ; 5 3 u q ; 3 $ o 5 3 * 3 ; # > 5 2 ; * & # & & # # ; ; ; o               X = & # # > ; > > r 3 & > > ",
"  # # # o .                 .         # # X O . # ; $ # & # X # # & . . # o # ; & $ # o # X   # % # & O . O # , # $ & 3 > & & . ",
"O i %.>.@.v b r 2 q $ # o   .       . u 9.,.4.t.>.%.@.t.>.; = >.,.%.> ; / ..9.%.9.3.%.%.3.U - U v.v.d.r > 8.8.O.i @.8.$.| 9...# ",
"o a %.a.j.g.h.>.h.B.j.d.j.d.g.9.d.[ 5 5 { v U >.>.>.@.d.>.; $ %.[ %.& O / [ ,.U 9.9.U z ,.U o r q.z.d.r > 8.O.I B O.2.O./ 2.Q X ",
". 3 u v @.,.9.v U 9.,.@.t.t.>.{ %.,.r & z v s i u v u u f ; # i a %.> # { x / d { %.u q ,.>.# i %...*.r # i r K K i u G d a u # ",
"X ; 3 r u d v a q s %.2.4.2.d d y #.1 O $ > > - > ; ; o ; $ # ; & r & # q 6 > 3 t ; 6 q 3 2 . > 6 5 , # X 3 = ; ; ; ; ; * 2 * X ",
"o O o . O % # O > > 3 5 3 5 > , - : O + > & & - # . ; 2 ; . o & @ , X o 5 5 , 3 > ; ; ; $ 3 & 2 5 ; ; # o * . $ ; * * $ $ * = o ",
"@.v r X 2 r 2 > ; = & # X > , > - - > _ x.z.b.n.r ; 9.v.v w @.,.q 5 > v v.g.g.a.j.g.d.u.@.g.g.a.a.[ 3.,.@./ # v g.d.d.t.9.9.u.9.",
"p.[ f . 5 u 3 q u f s 5 % @.e.O.$._ _ e.g.e.a...3 ; @.x 2 q ,.[ 6 - & K a.4.4...{ v u @./ [ @.{ @.v @.{ { s X i [ U { >./ v / U ",
"d r r   = > $ 3 > 3 6 > o i | K _ _ Z _ #._ e..., > i 3 2 q v a t - + q z d [ ../ a 5 v v v z i u t z t u r . q a i a v a d b f ",
"= > 2 . # # O = # o & # # & > , , , - > - O - , # # ; # ; ; * ; 5 & # > 3 , q q , 3 $ & ; 5 ; ; & ; - $ $ ; . & & # # # # * ; $ ",
"                    O X > > > & . - ; > , - > 3 ; & > X                                 o & . & ; 3 @ ; - > & ; 3 > ; ; ; 2 ; o ",
"                  . > # | d.d.B O $.g.=.a.g.g.4.d.4.4.%                 O & 3 , t i v / %.v # [ g.v.,.g.e.a.a.d.9.9.9.t.t.9.v 2 ",
"                  . ; > r K s r X K { d K U U U s @.u # X * 6 q i { / ,.g.v.g.U 9.%.%.>./ a & q ..K s K / / ~ / U / X.v [ / / $ ",
"                  . & = 3 u 5 3 o r r 6 r r i b z z i $ 5 g.a.d.9.4.4./ K ..{ @.6 z v v a z & ; d r q t i r t z d u i r r q a ; ",
"                    X o # & # # . # # $ $ # & # # o #   & ,.U / G t / i r t q v , q 5 ; ; 2 # # O O # & @ # O & ; $ & & # # ; o ",
"$ 2 3 2 # * > 3 ; & , , < 5 > 3 > 2 2 6 5 3 > . > 5 r , 3 r 5 q 6 5 5 , 3 , # + - ; # # o o . ; 6 5 , & + - , 6 3 , 3 5 6 , 5 X ",
"u 6.a.@.4 f @.4.a.4.d.q.q.p.4.a.d.d.t.g.a.g.%.$ K d.9.4.a $ & ; & -   X & ; , .   # ; r u v v e.q.=.t & - d %.3.e.9.g.9.g.a.d.3 ",
"3 G @.v % q v U ` z K B v U s U U / f v v [ a o 6 / a [ i # $ $ & >   + r z O.& * @.@.%./ [ / U / ~ 6 @ & y ../ K K G i K / / # ",
"> 0 q u o 2 0 q r q r q q r 8 r r u q w w r q # 2 u 5 u u 3 6 5 q r & 6 / K U & X r 5 5 3 r u r 6 6 > - , r t 6 r r r 6 q q u # ",
"$ # o , . % % # % % & % % & + % % $ # * * # # X # ; & # # * # # & O . # ; ; # X X > # ; & $ # # & O X X O O $ & + # & & # o ; X "
};
