/* XPM */
static char *east1701971671[] = {
/* columns rows colors chars-per-pixel */
"64 64 256 2 ",
"   c black",
".  c #010101",
"X  c #020202",
"o  c gray1",
"O  c #040404",
"+  c gray2",
"@  c #060606",
"#  c #070707",
"$  c gray3",
"%  c #090909",
"&  c gray4",
"*  c #0B0B0B",
"=  c #0C0C0C",
"-  c gray5",
";  c #0E0E0E",
":  c gray6",
">  c #101010",
",  c #111111",
"<  c gray7",
"1  c #131313",
"2  c gray8",
"3  c #151515",
"4  c #161616",
"5  c gray9",
"6  c #181818",
"7  c #191919",
"8  c gray10",
"9  c #1B1B1B",
"0  c gray11",
"q  c #1D1D1D",
"w  c #1E1E1E",
"e  c gray12",
"r  c #202020",
"t  c gray13",
"y  c #222222",
"u  c #232323",
"i  c gray14",
"p  c #252525",
"a  c gray15",
"s  c #272727",
"d  c #282828",
"f  c gray16",
"g  c #2A2A2A",
"h  c gray17",
"j  c #2C2C2C",
"k  c #2D2D2D",
"l  c gray18",
"z  c #2F2F2F",
"x  c gray19",
"c  c #313131",
"v  c #323232",
"b  c gray20",
"n  c #343434",
"m  c #353535",
"M  c gray21",
"N  c #373737",
"B  c gray22",
"V  c #393939",
"C  c #3A3A3A",
"Z  c gray23",
"A  c #3C3C3C",
"S  c gray24",
"D  c #3E3E3E",
"F  c #3F3F3F",
"G  c gray25",
"H  c #414141",
"J  c gray26",
"K  c #434343",
"L  c #444444",
"P  c gray27",
"I  c #464646",
"U  c gray28",
"Y  c #484848",
"T  c #494949",
"R  c gray29",
"E  c #4B4B4B",
"W  c #4C4C4C",
"Q  c gray30",
"!  c #4E4E4E",
"~  c gray31",
"^  c #505050",
"/  c #515151",
"(  c gray32",
")  c #535353",
"_  c gray33",
"`  c #555555",
"'  c #565656",
"]  c gray34",
"[  c #585858",
"{  c gray35",
"}  c #5A5A5A",
"|  c #5B5B5B",
" . c gray36",
".. c #5D5D5D",
"X. c gray37",
"o. c #5F5F5F",
"O. c #606060",
"+. c gray38",
"@. c #626262",
"#. c gray39",
"$. c #646464",
"%. c #656565",
"&. c gray40",
"*. c #676767",
"=. c #686868",
"-. c DimGray",
";. c #6A6A6A",
":. c gray42",
">. c #6C6C6C",
",. c #6D6D6D",
"<. c gray43",
"1. c #6F6F6F",
"2. c gray44",
"3. c #717171",
"4. c #727272",
"5. c gray45",
"6. c #747474",
"7. c gray46",
"8. c #767676",
"9. c #777777",
"0. c gray47",
"q. c #797979",
"w. c gray48",
"e. c #7B7B7B",
"r. c #7C7C7C",
"t. c gray49",
"y. c #7E7E7E",
"u. c gray50",
"i. c #808080",
"p. c #818181",
"a. c gray51",
"s. c #838383",
"d. c #848484",
"f. c gray52",
"g. c #868686",
"h. c gray53",
"j. c #888888",
"k. c #898989",
"l. c gray54",
"z. c #8B8B8B",
"x. c gray55",
"c. c #8D8D8D",
"v. c #8E8E8E",
"b. c gray56",
"n. c #909090",
"m. c gray57",
"M. c #929292",
"N. c #939393",
"B. c gray58",
"V. c #959595",
"C. c gray59",
"Z. c #979797",
"A. c #989898",
"S. c gray60",
"D. c #9A9A9A",
"F. c #9B9B9B",
"G. c gray61",
"H. c #9D9D9D",
"J. c gray62",
"K. c #9F9F9F",
"L. c #A0A0A0",
"P. c gray63",
"I. c #A2A2A2",
"U. c gray64",
"Y. c #A4A4A4",
"T. c #A5A5A5",
"R. c gray65",
"E. c #A7A7A7",
"W. c gray66",
"Q. c #A9A9A9",
"!. c #AAAAAA",
"~. c gray67",
"^. c #ACACAC",
"/. c gray68",
"(. c #AEAEAE",
"). c #AFAFAF",
"_. c gray69",
"`. c #B1B1B1",
"'. c #B2B2B2",
"]. c gray70",
"[. c #B4B4B4",
"{. c gray71",
"}. c #B6B6B6",
"|. c #B7B7B7",
" X c gray72",
".X c #B9B9B9",
"XX c gray73",
"oX c #BBBBBB",
"OX c #BCBCBC",
"+X c gray74",
"@X c gray",
"#X c gray75",
"$X c #C0C0C0",
"%X c #C1C1C1",
"&X c gray76",
"*X c #C3C3C3",
"=X c gray77",
"-X c #C5C5C5",
";X c #C6C6C6",
":X c gray78",
">X c #C8C8C8",
",X c gray79",
"<X c #CACACA",
"1X c #CBCBCB",
"2X c gray80",
"3X c #CDCDCD",
"4X c #CECECE",
"5X c gray81",
"6X c #D0D0D0",
"7X c gray82",
"8X c #D2D2D2",
"9X c LightGray",
"0X c gray83",
"qX c #D5D5D5",
"wX c gray84",
"eX c #D7D7D7",
"rX c #D8D8D8",
"tX c gray85",
"yX c #DADADA",
"uX c gray86",
"iX c gainsboro",
"pX c #DDDDDD",
"aX c gray87",
"sX c #DFDFDF",
"dX c gray88",
"fX c #E1E1E1",
"gX c #E2E2E2",
"hX c gray89",
"jX c #E4E4E4",
"kX c gray90",
"lX c #E6E6E6",
"zX c #E7E7E7",
"xX c gray91",
"cX c #E9E9E9",
"vX c #EAEAEA",
"bX c gray92",
"nX c #ECECEC",
"mX c gray93",
"MX c #EEEEEE",
"NX c #EFEFEF",
"BX c gray94",
"VX c #F1F1F1",
"CX c gray95",
"ZX c #F3F3F3",
"AX c #F4F4F4",
"SX c gray96",
"DX c #F6F6F6",
"FX c gray97",
"GX c #F8F8F8",
"HX c #F9F9F9",
"JX c gray98",
"KX c #FBFBFB",
"LX c gray99",
"PX c #FDFDFD",
"IX c #FEFEFE",
"UX c white",
/* pixels */
"g w 7 w 9 0 8   9 0 w u 6 2 e 4 9 y r & # u 0 0 0 3 y w 7 7 = : g 9 w 6 9 9 5 O 9 0 w u 6 2 e 4 9 y r & # u 0 0 w 6 8 r w 3 - & ",
"s 0 9 8 w e r : > t 9 4 8 5 7 9 0 w u 5 - 0 4 0 e 8 w 6 6 q 2 3 i 0 8 9 9 t 0 < > t 9 4 8 5 7 9 0 w u 5 - 0 4 0 q e 0 5 6 0 6 > ",
"4 5 w y t r 5 , o q w 7 w 0 5 4 8 6 w 5 = 0 0 r 9 9 q r w < # $ , 8 9 p t t 2 , o q w 7 w 0 5 4 8 6 w 5 = 0 0 r 7 w e e 0 1 & # ",
"r i e t 3 5 # > ; 1 4 2 < 7 t q 9 8 q 3 % q w 5 7 e 8 5 , $ $ * 9 p e r 9 , % ; ; 1 4 2 < 7 t q 9 8 q 3 % q w 5 0 0 8 6 1 $ @ : ",
": : * : 2 -   o   X * * O X % 2 8 0 t q = 1 : + @ > - @ # - , & = , & - 7 $ X .   X * * O X % 2 8 0 t q = 1 : + % - * @ % ; > - ",
", * ; 3 c 0 2 @ 7 1 # , j t . O ; ; 1 7 # X X # -   o : 2 < : = > : % 5 x q < # 7 1 # , j t . O ; ; 1 7 # X X # = X o - 1 3 < & ",
"i 9 = 4 s 1 6 ; 0 r 9 5 t , . q w w 0 p 0 6 9 a f # * 9 7 3 2 0 u 0 & 4 p 5 2 : 0 r 9 5 t , . q w w 0 p 0 6 9 a a * & 8 6 2 6 7 ",
"1 7 X e 7 < 8 9 4 - > 1 4 < & 7 e u 9 t r t 9 7 6 + 7 9 < 9 5 1 2 4 # 9 0 2 5 9 4 - > 1 4 < & 7 e u 9 t r t 9 7 3 $ 2 r 3 < 7 1 ",
"3 4 ; > 9 > 3 3 < > + > : # # 4 e q q w r w 8 4 8 > > 6 7 7 6 1 3 4 ; > 9 > 3 3 < > + > : # # 4 e q q w r w 8 4 7 > < 7 6 5 6 2 ",
"; ; 2 > 5 < ; * @ = @ > - # & 9 u r w w 0 3 ; & : - : 1 , : ; = - ; 2 > 5 < ; = @ = @ > - # & 9 u r w w 0 3 ; & > = - < < , : * ",
"  $ e : + o O %   & + = $ O O : ; % $ * & + . X   @ * & # O X O   $ e : + o O %   & + = $ O O : ; % $ * & + . X   @ & % $ @ o o ",
"q : ; @ 1 e 3   : 6 > 2 2 > % % 5 < , 3 5 4 7 e % 7 r q 0 7 5 8 w : : @ 1 e 2   : 6 > 2 2 > % % 5 < , 3 5 4 7 e # 8 y w 9 5 4 0 ",
"8 w r 7 8 9 t ; 4 y 9 e r w 2 > t 0 9 0 8 6 9 t O 3 0 8 9 9 7 9 9 e r 7 8 9 t - 4 y 9 e r w 2 > t 0 9 0 8 6 9 t X 3 w 9 8 7 6 0 ",
"6 w 0 w i e y ; , t q r w 9 3 2 e e r e 9 6 7 0 $ 1 7 7 9 0 8 7 5 q 0 w p e u : , t q r w 9 3 2 e e r e 9 6 7 0 & < 5 6 0 w 9 5 ",
"4 3 3 3 t 0 8 < , w 6 9 8 6 1 2 4 9 w 9 5 4 5 6 , 2 7 8 7 7 7 2 3 2 2 3 t q 8 1 , w 6 9 8 6 1 2 4 9 w 9 5 4 5 6 1 2 5 7 8 9 7 1 ",
"& # - O & % % 6 ; 4 * > 2 4 > : 1 7 8 2 ; ; > : ; = > < = * = @ = $ ; O & $ $ 4 ; 4 * > 2 4 > : 1 7 8 2 ; ; > : - = < 1 * % * $ ",
"% > % $ , & ; O + ; = , = : ; $ ; - = 7 1 O w 8 8 9 3 ; : > = @ + > & # > * : . + ; = , = : ; $ ; - = 7 1 O w 8 8 9 4 : > , = @ ",
"y g h % # > = - 4 8 9 y < - 4 w e r w y 6 * f f y y 7 e u + O b g j g * % - * < 4 8 9 y < - 4 w e r w y 6 * f f e r 5 q t o . x ",
"d a t * 5 q 4 8 w e 0 w 1 q i 8 r u t u 0 , a e 0 t 8 e t . O Z p i r % 3 q 4 6 w e 0 w 1 q i 8 r u t u 0 , a e e i 0 t u O @ D ",
"w w = = q 3 8 8 1 0 r e - 7 u 4 r a a i r 5 a w y y e t e < 3 j 6 w : = w 8 w 7 1 0 r e - 7 u 4 r a a i r 5 a w t t w e q > 2 j ",
"u r * % r r u 7 0 7 9 p 3 5 w 5 w i t 7 4 1 a p p e 9 t t 1 1 p f e % & t q y w 0 7 9 p 3 5 w 5 w i t 7 4 1 a p d t q u u 3 4 d ",
"q > 4 < w w 5 8 1 = # < - 2 3 % 5 5 > & 1 3 w 7 4 8 < 1 9 * # y 0 ; 2 , 0 0 3 8 1 = # < - 2 3 % 5 5 > & 1 3 w 7 2 6 > , 6 % + t ",
"- * y 0 : . X ; . * * - X # = $ X O O o ; * = O O o   . = @ o , $ - a q > $ @ = . * * - X # = $ X O O o ; * = O @ +   O : $ + 1 ",
"7 6 3 1 3 4 0   i y 0 f u 9 6 7 * 9 s u t 4 0 y u o o w a i i r q 6 1 1 2 < 7   i y 0 f u 9 6 7 * 9 s u t 4 0 y t . X q a u y w ",
"u y r w r y 9 = q 7 0 r w 0 9 6 , d u s a s u w 4 * > t g f a u a r t r 0 t e ; q 7 0 r w 0 9 6 , d u s a s u w 4 * : e d f s i ",
"s i e 0 w e 7 , 9 6 7 q q q q 0 < a y r t i u w 0 = : e t q e r a t y t w w 8 - 9 6 7 q q q q 0 < a y r t i u w 0 * : e t q e r ",
"3 5 7 q y e 3 , r w w e w 9 7 6 , u a e e w u e 2 - 5 t e t i w 4 4 8 w e q 4 > r w w e w 9 7 6 , u a e e w u e < = 4 t e t i q ",
"8 8 7 9 0 1 $ @ 5 8 9 q e 0 7 7 1 9 y q y q e 6 6 < 9 y q r u 8 9 8 6 6 7 < & % 5 8 9 q e 0 7 7 1 9 y q y q e 6 5 < 9 y q r y 7 ",
"e 5 > > > - % & 2 7 6 5 8 7 5 7 = 1 t 7 2 = 1 4 8 ; : 4 2 5 q 0 8 5 < , 1 : & % 2 7 6 5 8 7 5 7 = 1 t 7 2 = 1 4 8 ; : 3 2 4 0 9 ",
"      * > : & . % ; & @ = - = < : & - o X $ % + & ; = + # < > o     X & , , & . % ; & @ = - = < : & - o X $ % + & ; = + @ , > o ",
"3 - 6 a a u 6     @ o . & - - 3 3 s v 8 . , r f w j d 9 9 q :   2 < 6 t i i 6 O   @ o . & - - 3 3 s v 8 . , r f q h d 9 9 q ;   ",
"l 9 8 e 7 0 6   9 i r 9 t q 5 0 t p r = # h g 7 8 7 3 9 e ;   $ s q 9 0 9 e 5 . 9 i r 9 t q 5 0 t p r = # h g 7 7 6 3 0 t ;   + ",
"s w 9 e 7 8 8 X q e 0 i 2 3 q 6 8 u t % @ i q 9 0 3 y q 7 7 * ; h 9 w 5 8 9 6 + q e 0 i 2 3 q 6 8 u t % @ i q 9 r 1 w e 0 7 % = ",
"a 9 9 7 q w r : - u w 7 5 2 6 e 9 e u 4 = q 5 9 e 8 w 6 6 q 2 2 t 9 9 q q y 9 > - u w 7 5 2 6 e 9 e u 4 = q 5 9 w 0 e 4 5 e 3 , ",
"5 5 q t t r 4 > + 9 9 4 y e 6 < 8 7 w 4 * 0 q r 9 9 q r w < # % 2 9 8 y q e 4 3 + 9 9 4 y e 6 < 8 7 w 4 * 0 q r 8 q e w 0 1 % # ",
"r i e t 3 5 @ ; & < q 3 < 1 y t 9 8 q 3 % q w 4 8 r 9 5 < % % * 5 u t i e 1 # & & < q 3 < 1 y t 9 8 q 3 % q w 4 9 w 7 6 1 # $ ; ",
": : = : 1 =   X X   # + % + = > 8 0 t q = 1 : + @ , - # # - < * > 1 $ % 2 @ O @ X   # + % + = > 8 0 t q = 1 : + % : & # % - , - ",
", * ; 4 x 8 1 @ 4 1 * , h 0 . # ; ; 1 7 # . X $ - . o : 2 < : = = ; * 8 n w , o 4 1 * , h 0 . # ; ; 1 7 # . X $ = X o - 1 4 , & ",
"i 8 * 3 s 2 6 - e r 5 5 y 3 . 7 e q 9 p q 6 8 a f # * 8 7 3 2 0 a q % 2 y 4 3 < e r 5 5 y 3 . 7 e q 9 p q 6 8 a s $ - 7 5 5 3 8 ",
"1 5   w 8 3 8 7 3 ; : 5 3 2 $ 5 r y 8 y t r 8 8 5 + 6 9 , 8 5 1 1 3 # 9 q 2 4 9 3 ; : 5 3 2 $ 5 r y 8 y t r 8 8 5 o 6 w 1 5 2 3 ",
"3 4 ; > 9 > 3 3 < > + > : # # 4 e q q w r w 8 4 8 > > 6 7 7 6 1 3 4 ; > 9 > 3 3 < > + > : # # 4 e q q w r w 8 4 7 > < 7 6 5 6 2 ",
"; ; 2 > 5 < ; * @ = @ > - # & 9 u r w w 0 3 ; & : - : 1 , : ; = - ; 2 > 5 < ; = @ = @ > - # & 9 u r w w 0 3 ; & > = - < < , : * ",
"  $ e : + o O %   & + = $ O O : ; % $ * & + . X   @ * & # O X O   $ e : + o O %   & + = $ O O : ; % $ * & + . X   @ & % $ @ o o ",
"q : ; @ 1 e 3   : 6 > 2 2 > % % 5 < , 3 5 4 7 e % 7 r q 0 7 5 8 w : : @ 1 e 2   : 6 > 2 2 > % % 5 < , 3 5 4 7 e # 8 y w 9 5 4 0 ",
"8 w r 7 8 9 t ; 4 y 9 e r w 2 > t 0 9 0 8 6 9 t O 3 0 8 9 9 7 9 9 e r 7 8 9 t - 4 y 9 e r w 2 > t 0 9 0 8 6 9 t X 3 w 9 8 7 6 0 ",
"6 w 0 w i e y ; , t q r w 9 3 2 e e r e 9 6 7 0 $ 1 7 7 9 0 8 7 5 q 0 w p e u : , t q r w 9 3 2 e e r e 9 6 7 0 & < 5 6 0 w 9 5 ",
"4 3 3 3 t 0 8 < , w 6 9 8 6 1 2 4 9 w 9 5 4 5 6 , 2 7 8 7 7 7 2 3 2 2 3 t q 8 1 , w 6 9 8 6 1 2 4 9 w 9 5 4 5 6 1 2 5 7 8 9 7 1 ",
"& # - O & % % 6 ; 4 * > 2 4 > : 1 7 8 2 ; ; > : ; = > < = * = @ = $ ; O & $ $ 4 ; 4 * > 2 4 > : 1 7 8 2 ; ; > : - = < 1 * % * $ ",
"% > % $ , & ; O + ; = , = : ; $ ; - = 7 1 O w 8 8 9 3 ; : > = @ + > & # > * : . + ; = , = : ; $ ; - = 7 1 O w 8 8 9 4 : > , = @ ",
"y g h % # > = - 4 8 9 y < - 4 w e r w y 6 * f f y y 7 e u + O b g j g * % - * < 4 8 9 y < - 4 w e r w y 6 * f f e r 5 q t o . x ",
"d a t * 5 q 4 8 w e 0 w 1 q i 8 r u t u 0 , a e 0 t 8 e t . O Z p i r % 3 q 4 6 w e 0 w 1 q i 8 r u t u 0 , a e e i 0 t u O @ D ",
"w w = = q 3 8 8 1 0 r e - 7 u 4 r a a i r 5 a w y y e t e < 3 j 6 w : = w 8 w 7 1 0 r e - 7 u 4 r a a i r 5 a w t t w e q > 2 j ",
"u r * % r r u 7 0 7 9 p 3 5 w 5 w i t 7 4 1 a p p e 9 t t 1 1 p f e % & t q y w 0 7 9 p 3 5 w 5 w i t 7 4 1 a p d t q u u 3 4 d ",
"q > 4 < w w 5 8 1 = # < - 2 3 % 5 5 > & 1 3 w 7 4 8 < 1 9 * # y 0 ; 2 , 0 0 3 8 1 = # < - 2 3 % 5 5 > & 1 3 w 7 2 6 > , 6 % + t ",
"- * y 0 : . X ; . * * - X # = $ X O O o ; * = O O o   . = @ o , $ - a q > $ @ = . * * - X # = $ X O O o ; * = O @ +   O : $ + 1 ",
"7 6 3 1 3 4 0   i y 0 f u 9 6 7 * 9 s u t 4 0 y u o o w a i i r q 6 1 1 2 < 7   i y 0 f u 9 6 7 * 9 s u t 4 0 y t . X q a u y w ",
"i y e q w t 9 - 9 7 0 e q q 0 6 < f u p y a p t 5 % ; y h s i i p r t e 9 y e = 9 7 0 e q q 0 6 < f u p y a p t 3 & : t g f s i ",
"a p y r y t 8 > q 9 0 q 9 9 9 7 ; p i y y i y 8 0 - > e t q e r s i u t e t 0 - q 9 0 q 9 9 9 7 ; p i y y i y 8 9 - > e t w r e ",
"1 4 5 9 r 0 2 > 9 0 q w q q q 9 > i d e e w u e < > 7 r w u s q 2 3 6 9 q 0 3 = 9 0 q w q q q 9 > i d e e w u e < ; 6 r w u a q ",
"e w 8 9 0 2 * * 5 9 q 0 q 0 7 6 3 q u 0 r w t 8 6 2 0 t 0 t i 8 w q 8 8 9 3 - & 5 9 q 0 q 0 7 6 3 q u 0 r w t 8 6 < 9 u w e u 8 ",
"8 2 : : > * @ + 3 9 8 5 7 6 4 5 & 1 y 8 3 ; 1 2 9 - ; 5 3 4 0 0 7 3 : ; > = # @ 3 9 8 5 7 6 4 5 & 1 y 8 3 ; 1 2 0 = - 6 5 3 8 w ",
".   X ; < < = X @ - & @ * ; : 2 ; & = .   $ % o * = & @ $ : ; +     o - 2 1 * o @ - & @ * ; : 2 ; & = .   $ % o = = & $ & : ; + ",
"4 - 4 u y t 5 X   % @ . % = * < 5 d x 4   > t g w h d 9 9 q :   2 > 4 r i y 3 X   % @ . % = * < 5 d x 4   > t g w j f 9 9 w :   ",
"k 9 9 t 9 q 6   6 i t 9 r e 7 w r p t ; & z h 5 7 8 5 8 w > X # f q 8 q 0 e 4 . 6 i t 9 r e 7 w r p t ; & z h 5 6 0 6 6 q , X O "
};
