/* XPM */
static char *wall1701971670[] = {
/* columns rows colors chars-per-pixel */
"64 64 49 1 ",
"  c #060606",
". c #060709",
"X c #0A0709",
"o c #070B0C",
"O c #0A0C0D",
"+ c #0D110F",
"@ c #0B0E11",
"# c #0D1314",
"$ c #0F1817",
"% c #0E1619",
"& c #0E191A",
"* c #111615",
"= c #131A16",
"- c #11161A",
"; c #131B1C",
": c #181E1E",
"> c #16211E",
", c #18231F",
"< c #151D22",
"1 c #191E24",
"2 c #171E29",
"3 c #1B1F28",
"4 c #162123",
"5 c #1A2324",
"6 c #1A2925",
"7 c #172129",
"8 c #1C252C",
"9 c #1D292D",
"0 c #1E2730",
"q c #1F2931",
"w c #202B24",
"e c #20272F",
"r c #212B2E",
"t c #202732",
"y c #212B33",
"u c #252D38",
"i c #292F3B",
"p c #243235",
"a c #293437",
"s c #243C35",
"d c #263239",
"f c #29333A",
"g c #2B3B3D",
"h c #2C423E",
"j c #2A3740",
"k c #2F3A40",
"l c #343F43",
"z c #334245",
"x c #354249",
/* pixels */
"g80e088@8yq088880yq&*q0q880q88&;g88y808O8y8y88880qq;*98q088098<#",
"d889e8t;;y0877888qq8&q888qt88875y89898u<;ye877888qq7;y980qe88855",
"5eeyy874*eeqq8888898-y8e00y081#+1e8qye75-88qy88880q0-e8880yy81##",
"rqq9y5#;*58578908005#7e990055#$>eyyyy5#**595588q8007#7yq8y877#;;",
"<;11-;##oo$#@O&18qqr;7;##<;&&-,*1;-1&;#O.O&#@O-<80er;5;@%;-&;;;$",
";>*;l8-#56&5h6o#;#56*@@*;@@-;<;;:>-;l8-*56&<h6o$;&>6*@@#&#@;;<;;",
"q9&ru821y887q6@5p98pr57sp#<y8778e9-ry77<yr79q7#4y98pr56sp#<07758",
"85#885787;;78<#8qyeyyyt38%<8177287#8q3788;;77;*9qqyyyyy32%587713",
"78;58177<;#;<;#59teqq8858;507732<8;<91274-&;>##7etqyy8850-<87785",
"-;5=1<;<-;;;&#&7uy9qq8;&<;*7<1;<-<5;<>;;&;&<&$&5uy8q07<&<;;514<;",
"#$w6#*#@@#O=$o#5<<&*####+O;=@##@#*w6####@#@*$X#4;<&-#####O;;O#@@",
"51=+45<O*r<55>#*5;;4948rO5p9591751=+,54X=e;54>#*8;=5679eO5p78918",
"8y97r9p&7pqqey<5dy9y77q8-88888988y95p9y;5yq9ye75pq9y88y8*888e888",
"t8yyq9q<<q9q688;89r978qq#<799808889yqey;5ey9997;89y9779q#<798888",
"44589995>e8q957>88yy7556>488071<5<578995:q8885448eyy7545,7789771",
"&&&&&$;,=7%455;;5495;4&4=;<4;&&&;&;&&&;>=7;444>;5494;>&4=>4<;&&;",
"-&-;;;&#*;;;>;;*;;;<5#5e884;4;;&*&-;;;;#$;;><;=-;=;53*5rrw7;>;;&",
"agg@-;;;456p;;88ryyd8*gpuy5yy#Okfgg#-;;;456p;:87eyyp8*gyut8yy#Xg",
"yyt-7857qyyy<8t8yu9ye<aty00yy#*xuy0-57579qeq<ettquqy8<dqe88yq#*x",
"yt<&re8e3899<y08yyuyy5uyytyqe<5gqt;;rqy778et:y88yyyuy5uyyyyyy<5j",
"yq-*y9q9789y5708yuy815uypuqye<<iy0--q9q087ey68e7yuy875pyuyyy9>:i",
"01<5q9807;;5=<<&49;#>w988<-<6;#yq31<q8807;;5=;<;18=#5w6871-;9;#y",
";<9w&#####**O*;;##$**+;#+O*@=*#4-;r6;$@*#***@#;;###**#;$####=+#4",
"8<66;55@pa9ap965*6ppq999r#Xrpypqr5,6;55#ya9sp965;5ppr8999#X8ayp9",
"uuy0qq0;88qq9889;puyuuyy7;-uuuuuuu00qy9;88yqq888<puyuuyy7;&uuuiu",
"yyyyyq8<898yq8q75auyyuq08;;yutqyyyuty08;898yy898<fyyyyqq7=<yyyye",
"8738tq5*y7009888;utytqq85=8yqqqq7888t07;08ey9888;pyyyqy85;6y0qy8",
"00000;<;7y08q988:5yeqqy88;99yqu0e8800<;-5y88y878:8ty0ty08<99tyuq",
"87<<<#;-58858q65;6y5714<9;;71778831<<%;#79879984;6p5174<9=;72378",
"@@O#<<#O&;&-&**5*;%##@+$==&-#;<@@@o$3;-@#;#&&$$5-*%###O*=;$;&;<#",
";45pra5oO#O@*#>46px<X>pp8gg596< ;;5ppa<X@#+O##>>6yx<.;ap8gd786;o",
"j79t8e5#5fer9998yyy;Ozp8888801@#g800885#5aey9999yyy;+hp8y788q1@O",
"g8q88e7#8y0078780yy-*q08090ee7;*g790888@5yt077879yq-*y880q8q87<-",
"p8e9tet;;y08878880y3;q0808088756y89890y1;y0t87888yy3;98080q88855",
"7eqqte84-80y98888888-r8088t0q5##5q0qyt8>;809e8888808-y0098y08<##",
"eyqyy5%**58578998ty8#7q99y075#;=8yqyy5#*#19758y88008#7q08y078%;=",
";;<1-;#+.O&#@O-700ye=8;#%<-&&;>#;<11&;#+Xo&#@@-500er=8&@%;&$;;>*",
">>-;ze-*56-<h6.#;->6*O@#;@@-&1<;:;*;l8-#56#5h6.#;->6*@##;@O;-<;-",
"99*ru771ye7899#5rr8p987sd@<q7778y9&8q85<y97897#4y98pr56sp#1e7758",
"83*587797-;17;#99yyyyyq88%18181273%801388-<57;*9eyyyyye82%587773",
"18;<e178<;#;;&#5ryqqq985q;<0583158;<8177<&#;>##7e0yqy8870;<08781",
"&&,:<;;;-;;<;#&5ut8qq7<;>**7<<;;-<5;4;;;-<<<;#$5yy9q97<;<;;5<<;;",
"##r,#*&##@+*&o#4;<#;##@##O;;@##@##6w#*#####*$o#4<<$*####@O;;@#@#",
"81;+>51O=e;55>##5<;59789O5p9795851=+56;X*r;;4>#*7;;4919eO5p78918",
"8qr799y#5yq9ye<5d99y78y8#7988897ee95p9y;5yqqr975dy9r78y8*788e888",
"99qqyyy<59y9997;89y8579y$488880889qyqey;<req997;89y977q9#<898888",
"74589995498995548eyy57484488q71444578995598085448eyy517654789751",
"&;&&$&;>;1&454;;4594;>;;=;4;<&&$;&&&&&;>=5-457;>5494;>&4=><<;&&;",
"*;*;;;&**;;>;;;;;;;55#5rw84;5;;&&;#;;;;#*;;=<;;-;;=43*5rwe7;>;;&",
"ugg#;;;;557p;;86eyyp3*guuy8eu#Xkagg#-;;;>76p;;88ryyp7*guyy8yy#Xg",
"uy0-67779yyq<et8yyey8<aeqq8yq#*xutq-5757qyey<et8quyy85pqe88yq#*x",
"q0<$eee818qq1y88yuyuy8utyyyrq15fqy<*y9y779ye1re8yyyut5uyyyyyy45j",
"yy--y9q0878y,3e7yuy855yyuyqyy<:uy0--q9q0788q65t7yuy855ypuyyt85:u",
"02<<y8785&;6=:<;48;#4w9871-;9=#yq31<q8805;;8=;<;77;#5w987<&<9=#u",
"-;rw;#+$#-**@#;;*@$;*$;##O##=*#5-<ew;$@*#*#*O&;;*#***#=$####=+#;",
"8466;55#ya9gp865*6ppr799p#X9pyp99>,6;55#ysraa765*5ppy799r#X9aypr",
"uu00yq9=88t8y898;puyyuuy7;&uuuuuuuqqqy8<98t9q0q9<puuuuut7;;uyufu",
"yyyyyq8;897yy8885fuyuuy88;<qyyq0yyuttq7>8q7yy8874uyyyyqq7=;yyyty",
"0220qt8;y8tyq888<pyq8qy05;5qyqqq8788ty7=e8tt9888<pyyyqy05;6ytqy0",
"000q8<--7y889088;8yqyty08;9qutu0088t0<;;7te8e088<5y0qtq98;9yt0u0",
"822<4*;*10859875;6q74744e:;52388877;1#<#10779957;5q711449=;52788",
"@@O#5;-@&&&#-&$5#;&#$o+$==*-&;<@@@o$1<-@&;&%-*&>&;#**@O$=;$;&-<#",
";45p9a4XO#+###>49yz4.=dp7gd696;.;;5pra1X+#O###>>9yz5X>sp8gd789;.",
"g700005#5d9re999yyy;+zy8088881##g808q07@5d99y999yyu;Ohu8q787q<#O"
};
